<svg id="Layer_1" data-name="Layer 1" xmlns="http://www.w3.org/2000/svg" viewBox="0 0 5658.06 1529.54"><defs><style>.cls-1{fill:#02d3fc;}.cls-2{fill:#01c5fd;}.cls-3{fill:#1cebfd;}.cls-4{fill:#019cfd;}.cls-5{fill:#02d5fc;}.cls-6{fill:#01a9fd;}.cls-7{fill:#0187fa;}.cls-8{fill:#0bdffd;}.cls-9{fill:#016ae5;}.cls-10{fill:#0164db;}.cls-11{fill:#0157ce;}.cls-12{fill:#0181f8;}.cls-13{fill:#018ffc;}.cls-14{fill:#019bfc;}.cls-15{fill:#01aefd;}.cls-16{fill:#0cdefc;}.cls-17{fill:#016ae6;}.cls-18{fill:#0175f0;}.cls-19{fill:#019ffc;}.cls-20{fill:#01bafd;}.cls-21{fill:#0178f1;}.cls-22{fill:#18e3fc;}.cls-23{fill:#1fbcfd;}.cls-24{fill:#018ff8;}.cls-25{fill:#018bfb;}.cls-26{fill:#02a1fb;}.cls-27{fill:#35ccfc;}.cls-28{fill:#0175ef;}.cls-29{fill:#02a8fb;}.cls-30{fill:#0478e8;}.cls-31{fill:#0124a1;}.cls-32{fill:#01b1fd;}.cls-33{fill:#01c2fb;}.cls-34{fill:#0ae0fd;}.cls-35{fill:#01c2fc;}.cls-36{fill:#03aefc;}.cls-37{fill:#0193fc;}.cls-38{fill:#4ddefd;}.cls-39{fill:#02ccfd;}.cls-40{fill:#004bc3;}.cls-41{fill:#66ebfd;}.cls-42{fill:#25c4fb;}.cls-43{fill:#0161db;}.cls-44{fill:#0279ee;}.cls-45{fill:#01b3fd;}.cls-46{fill:#fff;}</style></defs><path class="cls-1" d="M559.06,4.24c145.49-1.4,291-3.48,436.46-4,158.67-.6,317.35.18,476,.57,11.67,0,23.34,1.78,35,2.73-11.72,17.35-30,12.24-46.2,12.85-27.2,1-54.46-.68-81.6,1.15-90.08,1.4-179.59-14.89-270-9.1-33.72,2.16-67.68.35-101.52.37,85.62.11,171.55-4.52,256.7,1.77,53.18,3.93,104.29,25.34,141.64,68.76,15.59,18.12,33.43,34.87,18.82,62-5.89,10.94.64,17.47,9.54,21.84,93.74,46,150.54,132,220.15,203.89,28.32,29.24,39.63,66.16,32.77,108.61-8.87,54.84-50.59,68.15-94.43,80.49a35.37,35.37,0,0,1-18.76-4.44c-24.3-28.61-55.23-43.39-90.81-56.94-50.58-19.28-97.25-50.34-128.37-98-20.73-31.79-43.63-59-76.61-81.56-35.8-24.52-62.82-62.37-92.12-95.77-12.66-14.43-24.93-26.61-45.42-26.8-94.29-.87-188.59-2.51-282.94.53-106.62,1.59-213.18.87-319.68-3.51A183.85,183.85,0,0,0,479.89,196c-32.33,4.28-64.9,7.45-96.71,15.19-47.73,8.49-89.62,35-137,44.62a26.86,26.86,0,0,1-17.65-4.45,13.62,13.62,0,0,1-3.09-11.54c10.1-20.81,31.72-25,49.74-34.51,44.7-19.15,91.57-31.27,138.7-42.69,66.94-13.11,135.26-7.49,202.57-15.49,68-5.16,135.75,6.83,203.64,2,70.35-4.47,141.08,2.15,217.41-4.26-24.78-27.76-41.05-55.32-59.66-81.29-19-26.52-44.07-37.23-77.47-36.9-81.24.81-162.54,2.49-243.85-1-22.17,4.21-44.52,4-66.51.8C576.82,24.6,559.6,25,559.06,4.24Z"/><path class="cls-2" d="M865.92,178.32c90.32-.11,180.65.47,270.95-.75,28-.38,42,14.07,61.11,32.61,36.77,35.75,59.31,85.33,112.51,106.91,25.38,10.29,39.48,43.8,54,70.07,13.66,24.78,30,45.62,58.78,53.88,10,2.87,19.56,8.37,24.61,18.31,10.21,20.12,26.81,25.14,48.44,26,37.51,1.48,70.69,29.38,78.77,62.23-22.82,28.89-55.63,21-85.61,22.76-15.36.9-30.88.22-46-3.42-26.54-11.32-51.85-25.21-71.08-47.15-31.1-35.48-76.05-49.07-113.73-74.07-74.3-11.28-149.16-3.86-223.71-6.81-30.08-1.19-60.17-2.12-90.25-3.16-50.84-4.84-101.82-.51-152.69-2.38-12.43-.45-26.26,5.25-37.14-5.86-.91-8.47,5.25-11.48,11.22-14.6,89.25-11.06,179.55.94,272-11.92C993.72,374.6,998.19,317.15,958,288.4c-16.74-12-32.2-25.95-49.76-37.41C882.51,234.18,860.7,213.73,865.92,178.32Z"/><path class="cls-3" d="M1606.59,4.43c112.75-.75,225.5-1.06,338.24-2.58,26.74-.36,26.82,14.18,22.75,32.77-25.65,117.06-63,229.14-139.38,324.47-12.85,4.49-16.81-5.87-19.32-13.75-23.66-74.5-90-109.55-144.63-154.73-19.28-16-35.62-28.89-34.76-56.33.66-20.87-14.8-35.63-25.47-51.9C1586.55,55.75,1581.06,29.6,1606.59,4.43Z"/><path class="cls-4" d="M771.59,421.77l-15.73.06c-29.44,14.43-60.22,1.19-90.2,4.36-5.25-.05.53,6.26-.83,1.19-.34-1.29,1-2.34,3.43-1.58,8.44,2.63,21.82-6.66,24.53,10-63,5.17-126,3.9-189.08.46-8.63-4.51-18-1.4-26.93-2.78-9.6-1.5-24.23,6.12-27.72-6.49-4.28-15.53,10.57-21.8,22.29-27.6,40-19.76,38.67-18.72,12.33-55.65-24.49-34.33-59.63-53.77-93.41-76.05-32.92-21.71-34.72-35.79-12.53-66.07,29.89-14.6,61.93-16.49,94.38-15.94,37.42-8.44,75.33-1.59,113-3.66,6.78-.37,13,1.47,17.88,6.42C660,246,725,294.85,782.84,351.51,819.69,387.59,817.85,397.38,771.59,421.77Z"/><path class="cls-5" d="M1357,808.56c-24.48,22.16-52.13,39.47-82,53.38-18.91-5.4-20.34-6.59-9-20.06,15.21-18.15,29.92-36.13,39.26-60.63-44.43-19.25-89.2,8.47-132.21-4-80-17.09-146.78-53.15-187.25-128.14-9.35-17.34-25.25-30.06-37.28-45.54-8.09-10.42-22.1-21.07-8.19-37,104.68-6.84,209.46-1.37,314.17-3,20.79-.33,27.8,12,28.46,29.62,1.32,35.28,16.6,61.12,46.08,81.4,27.86,19.17,39.32,51.72,55,80.25C1400.38,784.64,1363.7,789.41,1357,808.56Z"/><path class="cls-6" d="M850.23,925.68l-102.9,15.44c-3-2.78-6.69-4.89-10.44-3.43-40.77,15.88-71.47,11.75-89.27-35.32-6.66-17.61-30-17.91-48.71-18.27-37.58-.72-70.85,15.79-105.63,26.19-33.43,7.74-63.14,25.22-95.19,36.53a56.77,56.77,0,0,1-10.83,2.6c-30.88,8.08-54.45,6.87-48.28-35.8,1.29-8.9-10-14.63-10.89-24,28.74-43.7,78.57-55.7,121.59-73.85a1558.35,1558.35,0,0,1,268.51-86.05c17-3.77,33.37-6.39,50.17-.67,34.64,21.11,56.12,54.21,78.39,86.58,5.27,7.67,12.42,17.13,8.83,25.16C843.07,868.77,848.89,897.22,850.23,925.68Z"/><path class="cls-7" d="M377.74,201.58c-15.16,31.25-.94,48.65,27.38,61.14,48.33,21.32,81,59.63,110.6,101.93,17.19,24.57,9.21,36.05-16.21,40.34-16.63,2.81-32.95,4-45.64,18.65,16.51,12.13,36.38-.88,49.84,12.58-88.78,3.24-175.4,17.92-258.93,48.92-12.94,6.43-20.11,2.68-19.72-12,.17-6.75,5.13-11.79,9.6-16.49,39.57-41.56,43.93-84.14,8.54-131.72-17.34-23.32-29.24-51,.62-76.07C286.92,228.75,330.19,209.1,377.74,201.58Z"/><path class="cls-8" d="M1606.59,4.43c-14.27,36-2.59,65.29,23.28,91.24,4.47,4.48,10.8,11.6,9.89,16.25-13.06,66.89,51.37,80.76,83.85,108.27,47.16,39.94,86,80.14,104.59,138.9-23.32,53.48-63,94.82-102,136.57-11.38-1.15-14.21,9.32-20.63,15-8,7.1-16.37,14.21-25.25.83-1.34-21.68,1.23-42.84,20.71-55.81,32.51-21.64,28.4-52.77,16-79.48-21.21-45.66-43-92.61-89.13-120.81-6.71-4.11-13.32-9.54-16.42-16.58-15.43-35-44.29-49.65-80-55a63.19,63.19,0,0,1-22-8.09c-8.08-4.66-15.9-10-16.27-20.47-.45-12.48,8.72-18,18.28-23,15-7.71,33.52-2.44,56.36-14.85-46.35-19.09-77.09-47.34-103.19-82-10.68-14.18-31.9-7.59-48.45-10.19-16.15-2.54-38.33,7.13-44.68-19l135.12-2.79A501.42,501.42,0,0,1,1606.59,4.43Z"/><path class="cls-9" d="M7.52,642c7.71-119-.13-239.19,28.61-356.45,5.24-21.38,11.76-42.44,26.72-59.6,46.72-23.67,56-19.83,105,43.71-1.09,11.15-9.2,16.9-17.29,22.92-6.83,5.1-15.68,10.05-6.24,20.44,22.08,23.84,33.27,53.48,43.6,83.1,21.07,60.42-16.57,104.72-54.23,137.38-33,28.59-58.76,69.29-105,82.74C18.73,619.13,28.27,644.06,7.52,642Z"/><path class="cls-10" d="M448.47,1357.45c-93.81,41.08-186.39,85.08-283.25,118.91-35.45,6.86-67.42.24-93.76-25.52-12.41-12.14-31.28-3.33-43.55-14.81-8.25-44.59,24.93-74.72,39-111.54,7.11-13.26,15.78-25.21,28.67-33.56,15.11-6.12,26.69-19.18,43.37-22.39,39.15-14.42,72-3.92,106.44,18.55C298.54,1321.82,353,1358,423,1342.36,433.21,1340.08,447.9,1339.26,448.47,1357.45Z"/><path class="cls-11" d="M448.47,1357.45c-23.33-22.79-44,7.27-69.39,3.82-44.87-6.09-82.64-26.27-117.31-47.64-41.26-25.44-77.68-51.14-128.32-34.47-3.63-4.13-5.84-8.91-4.18-14.32,19.64-63.83,109.8-111.54,174-93.47,48,13.51,91.27,38.62,138.91,53.47,27.56,8.59,32.25.44,32.5-23,.17-16.87-1.78-34.59,8-49.67,6.07-9.33,13.69-14.09,17.15,2.51-2,59.55,4.15,119.19-3.4,178.57C482.76,1345.91,467.48,1355.38,448.47,1357.45Z"/><path class="cls-12" d="M188.23,688.54C224.07,660.82,263.12,639.29,307,627c46.52-22.58,75.25,8.45,106,34.61,17,14.46,34.06,29.17,45,48.46,22.41,39.6,50,56.51,95.82,34.9,15-7.07,39.26-12.46,45.59,16.8-42.08,22.64-89.69,30.7-133,50.73C443,823.27,420.44,835.94,396.35,845c-22.33-1.94-39.44,10.68-58,20.06C293,888,271.23,875.73,261.77,825.91c-5.6-29.56.72-60.14-9.23-88.93-7.63-22.1-13.6-46.69-47.51-35.31C197.55,704.18,185.34,703.69,188.23,688.54Z"/><path class="cls-13" d="M598,759c-20.49-13.43-40.17-6.61-59.14,3.21-32,16.58-56.77,12.65-74.61-21.53C444.6,703,410.2,678.19,380.8,648.87,359.23,627.36,332.13,632.22,307,627c41.19-24.38,86.91-34,133.48-40.84,56.23-14.14,99.4,1.69,142.25,43.29,25.09,24.37,67.2,31.8,91.43,63.24,6.38,8.27,19.09,9.16,29.56,7.24,53.17-9.75,110.95-6.54,151.67-52.42,30.42-.23,44.93,18.6,53.54,44.56-2.19,12.27-10.1,19.11-21.5,22.66-88.95,6.68-177.75,14.15-263.06,43.27C616.14,760.81,607,764,598,759Z"/><path class="cls-14" d="M858.28,649.65c-12.55,29.83-31,48.73-67.27,49.3-28.21.45-56.42,8.59-84.38,14.51-26.75,5.66-46.16-3.11-58.39-27-9-17.6-21-27.88-42.23-29.44-28-2.07-48.22-21.42-63.36-42-17-23.16-33.27-33.93-62.12-22.4-12.59,5-28.47,6.37-40.07-6.46,56.33-19.76,115.51-24.28,174.06-26.74,138.86-5.85,277.89-5.36,416.87-2.42q2.91,8.7-6.2,10c-68.77-3.22-136.78,13.07-205.61,8.11-38.12-4.31-76.09-10.91-114.67-7.76-26.63-.16-53.31.32-80-.08,24.91.18,49.82.1,74.74.14,23.82,0,47.64,0,71.42,0C805.93,588.68,847.31,603.08,858.28,649.65Z"/><path class="cls-15" d="M826.33,161.93,613.84,162c-19.69-8.81-41.35-5.52-61.26-5.66C497,156,468.6,123,453.39,77.58c-11-32.95-27.51-42.43-60.33-36.34-32.14,6-63.58,14-95.14,22.14-13.72,3.53-30.7,12.39-38-10.37,46.62-31,102.3-32.6,154.24-43.78C461-.85,510.5-.83,559.06,4.24c32.76,18.21,68.26,4,102.17,8.61,2.63,2.86,6.52,5.41,7.5,8.83,19.39,67.75,60,110.19,133.82,115.75C814.22,138.31,828.77,143.8,826.33,161.93Z"/><path class="cls-16" d="M819,563.87l211.93-1.16c70.35-7.13,140.9-1.52,211.34-3,17.07-.36,34,0,49.64-7.91,35.55-10.71,71.58-14.43,108.26-6.65,21.38,9.37,36.27,24.63,42,47.8,5.14,20.73,17,38.2,29.23,54.83,20.3,27.54,24.29,51.38-8.7,72-5.41,3.38-9.31,9.1-7.93,16.53-28.09,30.17-63,51.09-97.78,72.26-1-.86-2.54-1.52-2.89-2.59-7.56-22.81,38.81-20.74,23.11-39.9-25.88-31.6-32.25-79.25-76.49-95.69-34.12-12.69-31.27-46.26-30.52-69.76,1-32.4-14.42-29.45-34.79-29.4q-149.25.39-298.49.16c-37,24.49-75.56,18.4-114.41,5.46C817.86,573.47,816.69,569.13,819,563.87Z"/><path class="cls-17" d="M1.53,1349.69C1.71,1210.35,0,1071,3,931.7c1.12-52.52,34.54-94,66.43-133.93,56.49-49.22,63.36-48.06,106.31,16.42C189,834,198.9,854.9,200.76,879s7.61,42.34,38.29,27.91c8.52-4,18.11-3.66,23.06,7.37-2.21,22.19-21.51,30.14-35.45,42.58-31,21.4-50.35,56.19-84.88,73.51C86,1052.09,79,1048,72.57,989.92Q70,966.58,65.18,943.65c-2.63-12.5-3.4-29.69-18.29-31.36-16.61-1.86-16.42,16.75-21.58,28-8.35,22.8-6,46.44-6,69.82q-.18,134.92,0,269.81c0,11.23-.15,22.5.21,33.75a46.87,46.87,0,0,1-3.22,25.73C13.09,1345.3,9.13,1350.1,1.53,1349.69Z"/><path class="cls-18" d="M259.4,916.5c-9.8-9.4-15.71-.65-23.19,4.3-24.74,16.34-47,9.42-45.82-18.06,1.84-44.69-20.85-76.18-43.88-109.4-16.06-23.15-30.91-36.52-53.07-6.07-4.81,6.62-10.23,20.48-24,10.5,28.81-48.11,75.78-76.52,118.77-109.23,3.18,1.94,6.18,5.1,9.58,5.61,17.62,2.64,35.83-31.91,45.95-11,12.61,26,34.5,52.61,27.2,86.11-6,27.47,1.12,55.29,8.52,79.76,9.28,30.65,35.42,12.15,54.67,5.33s33.75-30.93,59.13-16.74c-35.82,28.33-74.78,52.16-112.5,77.75C274.47,919.59,266.86,922.25,259.4,916.5Z"/><path class="cls-19" d="M259.91,53c11.19,11.28,21.47,3,32.1-1.3,42.65-17.08,88.33-20.61,132.85-29.29,26.08-5.08,32.84,16.82,35.59,32.75,12.66,73.27,63.23,94.86,128.14,99.1,9.15.6,18.41,0,25.25,7.75-68.72.08-136.88,7.65-205,15.4-8-5.37-16.44-7.38-26.13-5.29-24.95,5.38-46.92-3.45-66.95-16.68-29.59-19.55-53-46.85-81.94-67.39-6.19-4.4-10.34-12-6-20.77C236.86,58.84,246.89,52.58,259.91,53Z"/><path class="cls-20" d="M1173.43,767.88c53,4.52,107.29-22.36,160.63,6.93-29.57,21.71-33.35,64.14-68,81.53l9,5.6c-34.67,29.39-75.5,49.09-114.13,72.27-11.06,3.44-25,4.33-19.57-11.56,12.38-36.11-12.82-45.53-36-57.44-10.34-5.32-22.08-8.05-30.57-16.83-10-14.85-18.08-30.82-31.64-43.28-10.44-9.6-19.85-20.92-11.71-37.09,13.09-18.43,32.79-22.94,51.66-16.59C1112.65,761.38,1143.42,761.93,1173.43,767.88Z"/><path class="cls-21" d="M7.52,642c13.87-10.49-1.15-51.37,37.62-35.66,24.46-40.71,75.32-56.73,96.12-99.62,13.13-27.06,45.38-43.45,40.37-81.32-4.26-32.27-21.3-58.12-33-86.66-3.92-9.55-10-18.21-15.09-27.28,23.46-32.86,51.34-59,94.48-61.87l15.83-.76c-19.61,37.34,7.3,63.23,22.53,92.13,26.18,49.68,19.32,86.86-24.76,125-12.48,10.79-12.55,15.18,3.19,19.21C160,524.9,84.2,576.3,25.39,650.62,11.93,667.63,4,664.54,7.52,642Z"/><path class="cls-14" d="M889.59,705.11l15.81-15.44c20.17-6.33,30.84,2.34,34.66,21.83-19.8,19-19.88,36.69-2.87,59.86,21.37,29.1,43.33,60.73,17.94,99.91-7.09,10.94,1.62,15.78,11.19,19.61,8.78,3.52,22.19,4,17.81,19.81l-133.9,15c-28.23-22.77-27.11-47.56-6.34-74.89,9.09-12,.06-20.85-7.6-30.4-22.1-27.53-43.19-55.86-64.67-83.89,20.82-24.32,51.34-17,77.6-23.21C862.51,710.16,877.72,716.08,889.59,705.11Z"/><path class="cls-22" d="M1454.76,736.3c-18-16.53,4.8-20.43,10.28-26.35,14.75-16,19.28-28.7,2.32-46.29-29.2-30.28-35-73.62-57.57-107.77,7.47-7.48,15.22-5.76,23.08-.71,47.53.11,95.27,3.91,142.18-7.61l15.82.17c38.62,10.81,63.89-18.39,94.54-31.46,15.88-2.36,18.45-30.94,40.76-20.63C1646,587.47,1556.44,668.7,1454.76,736.3Z"/><path class="cls-23" d="M488,901.36c40-20.47,81.51-34.58,127.29-31,25,1.94,47.65,9.63,53.15,37.34,5.57,28,17.57,39,46.26,27.73,10.67-4.21,23.33-5.13,32.6,5.7l-228.59,63.21c-18.85-1.23-42.2,4.9-48.45-21.41C463.33,953.59,457.17,923.08,488,901.36Z"/><path class="cls-24" d="M984.13,910.69c-40-8.43-71.33-18-29.47-66.13,13-14.95-10.74-34.74-17.76-52.19-3.8-9.44-10.77-17.67-16.68-26.19-26.11-37.7-26.16-37.67,17.1-53.47,41.31,6.29,70.33,30.95,94.4,63,12.68,25.63,55.82,30.92,47.36,70.69-.45,39.15-21.87,68.83-56.81,78.71C1015.66,904.24,995.36,919.41,984.13,910.69Z"/><path class="cls-25" d="M227.8,67.29c40.07,26.47,70.52,64.89,113,88.81,21.72,12.24,52.09-6.44,68,21.32-46.42,7-88.59,28.25-133.68,39.69-11-3.79-19.75,3.13-29.25,6.38-20.78,7.12-40.27,3.15-51-15.43-15.59-26.94-33.53-48-66.45-52-5.44-.67-7.16-6.47-4.15-12C154.14,112.19,187.68,85.31,227.8,67.29Z"/><path class="cls-26" d="M1022.27,925.13c23.83-22.71,41.78-49.66,56.81-78.71,19.57,1.59,37.93,6.38,53.78,18.83,19.76,15.52,48.06,27.55,16.82,58.76-6,6,5.73,8.26,11.18,10.2-64.6,40.49-131.75,75.79-204,102.09C980,998.9,993.62,957.51,1022.27,925.13Z"/><path class="cls-27" d="M488,901.36c-12.63,23.31-6.22,48.61-7.8,73.1-1.89,29.35,29.54,15,38.53,29.87l-13.59,6.91c-19.31,18.84-43.34,27.23-69.33,31.34-3.89.22-7.9-.88-11.62-.38-54.78,7.26-58.49,5.62-70.61-32.41-11.91-37.34-8.17-43.85,39.64-69C421.67,920,453.86,908.28,488,901.36Z"/><path class="cls-28" d="M124.27,144c37,1.61,66.42,11.56,76.55,53.9,4.39,18.37,24,21.7,42.21,18.05,10.88-2.19,21.81-10.83,32.11,1.15l-47,23.85c-19.72,13.08-38.28,28.51-63.25,30.85-9-5.08-21.79-7.94-26.16-15.62-18-31.53-40.12-43.36-73.42-22.88q-1.25-3.67-2.47-7.35C79.46,195.76,97.71,166.78,124.27,144Z"/><path class="cls-29" d="M1432.87,555.18l-23.08.7c-37-1.68-73.88-.37-110.3,7.33-6.92-7.57-18.89.39-25.45-8.28,3.59-37.63,3.16-74.71-15.39-109.24,50.71,0,87.8,30.1,119.28,62.87C1395.13,526.47,1420.05,533.59,1432.87,555.18Z"/><path class="cls-30" d="M1.53,1349.69l6.14-7.51c24.76.38,27,17.47,21,34-7.45,20.71-9.31,42-13,63,.67,18.3-2.35,36.34-4.29,48,.28-9.51,5.18-25,4.61-41.09a21.85,21.85,0,0,1,4.77-10,8.29,8.29,0,0,1,10.2.37c19.67-13.76,35.85-13.32,51.71,7.7,20.28,26.88,55.45,20,82.5,32.14-42.14,21.45-87,35.54-131.91,49.84-22.2,7.07-34.28,4.51-33.25-23.51C1.94,1451.74,1.18,1400.69,1.53,1349.69Z"/><path class="cls-31" d="M432,1034c25.44-4.16,46-23.87,73.14-22.71-.56,92.4-.89,184.82-2,277.23-.18,15,5.53,31.44-6.8,44.79q-.59-93.54-1.19-187.07c-18-18.27-10.72-41.57-12.17-63-2.4-35.25-6.74-38.79-40.19-25.19-58.1,23.63-111.18,56.19-162.85,91.53-12.67,8.66-27.13,29.63-45.85,6.56A29.67,29.67,0,0,1,246,1132.43C302,1088.41,359.75,1047.44,432,1034Z"/><path class="cls-32" d="M692.79,435.76c-10.14-10.59-25.08-2.65-41.8-12.09,38.57-.91,71.24-11.82,104.87-1.84,32.32,16,66.78,3.84,100,7.59,29.5,3.32,60-6.94,88.79,6.3C860.72,440.77,776.76,439.58,692.79,435.76Z"/><path class="cls-33" d="M1274,554.93c9,1.21,18.75.06,25.45,8.28l-268.58-.49a30.37,30.37,0,0,0,.49-5.71Z"/><path class="cls-32" d="M771.59,421.77c27.47-23.24,32.61-40.1-2.84-66-47.89-35-95.55-74.08-131.54-120.51C591,175.63,531.38,187.34,472.12,185.64c12.07-11.32,27.15-7.49,41.11-7.51q176.35-.24,352.69.19c17.69,60.79,86,70.84,118.15,117.24,5,7.23,18.79,12.28,18.84,18.43.35,39.34,22,60.94,55.11,76.62,11.73,5.56,5.77,13.57-2.86,20.65-13.54,11.13-28.84,10.53-44.52,10.52Q891.12,421.72,771.59,421.77Z"/><path class="cls-34" d="M1685.41,516.28c-42.21,52.74-42.89,53-94.54,31.46,8.21-4.13,16.37-8.35,24.63-12.36,70-34,85.43-105.12,28.39-159.77-28.52-27.32-54.15-56.56-78.54-86.63-44.26-54.59-98.49-94.15-162-122.53-21.24-9.5-13.52-18.43,1.71-25.46,23.15-10.68,19.74-22.26,4.39-38.42-55.53-58.45-122.18-90.36-203.68-89.9-70.48.4-141,.08-211.41-6.37h377c7.42,7.12,16.89,7.18,25.93,6.28,47.12-4.65,87.41.48,107.85,53.33,7.71,20,34.36,21.64,53.56,29.55,13.94,5.75,27.22,13.7,22.41,31.74-4.56,17.14-18.49,14.8-32.13,12.44a69.54,69.54,0,0,0-23.47-.22c-9.85,1.73-23.56,2.43-23.36,15.75.15,10.34,12.3,12.55,21,14,43.45,7.17,77.69,19.4,102.31,65.28,14.53,27.07,49.61,46.39,71.27,76.3,29.49,40.74,42.84,82.16,42.17,130.36-.1,6.92-3.31,15.13-9.62,15.67C1691.54,460.07,1691.66,490.33,1685.41,516.28Z"/><path class="cls-35" d="M826.33,161.93c-14.42-17.25-34.7-13.7-53.8-16.05-64.83-7.95-109.24-61.68-111.3-133,81.07,0,162.35,3.53,243.13-1.26C961.49,8.21,985.73,43.16,1008,82.85c10.6,18.87,19.94,36.1,40.93,44.72,7.35,3,20.87,2.37,17.1,16.2-2.52,9.23-10.82,15.32-20.21,16.68-11.56,1.67-23.43,1.61-35.16,1.62Q918.52,162.17,826.33,161.93Z"/><path class="cls-36" d="M164.9,271.81c20.58-11.3,38.91-27.23,63.25-30.86-.05,2.88-.11,5.76-.16,8.64-30.61,22-66.77,35.48-94.48,61.88-4.61,1.78-9.93,6-13.69,4.87-8.26-2.42-2.38-7.37.38-10.51A140.46,140.46,0,0,1,164.9,271.81Z"/><path class="cls-33" d="M1031.72,775.73c-34.16-17-64.3-40-94.41-63-6.46-13.46-19.85-17.33-31.91-23.06l-47.12-40c-15.74-23.37-41.53-35.33-61.76-53.64-8-7.27-16.29-12.85-17.48-24.38,13.24-6.76,26.56-6.12,39.94-.49l117.93.23C970,608,997.58,648.94,1028.05,687.25c28.89,36.34,73.1,60.17,120.29,72.47,8.61,2.25,18.33.34,25.09,8.17-34.48-1.91-69.42,5-103.45-6.32C1054.1,756.29,1043.81,769.15,1031.72,775.73Z"/><path class="cls-37" d="M330.39,893.72c12.69,2.52,37.05-6.35,24,22.37-13.64,30.06-6.71,35.46,21.55,20.25,1.83-1,6.3,2.91,9.54,4.54-20.93,24.56-46.2,44.17-72,63.16-52,34.21-90.78,82.49-134.77,125.24-11,10.72-19.25,25.35-36.51,28.11-28-4.48-38.24-36.73-65.88-41.88-4.78-45.92,28.23-67.19,58.88-90,42.63-11.95,62.77-52.19,95.87-76.19,22.23-19.65,47.89-34.45,72.19-51.15C311.39,892.61,319.5,883.92,330.39,893.72Z"/><path class="cls-38" d="M306.41,995.79l79.09-54.91a50.26,50.26,0,0,0,7.76-.14c4.9,5.3,2.82,11-2.37,12.62-35.32,11.33-36,31.55-22.81,62.78,8.47,20.07,13.57,30.13,35.2,18.44,9.23-5,19-10.23,28.74-.63-70.62,32-136.33,71.87-195.81,121.74-1.84-.26-3.67-.53-5.52-.76-39.05-32.76-39.05-45.52-5.83-81.42C250.48,1045.83,281.91,1024.48,306.41,995.79Z"/><path class="cls-39" d="M330.39,893.72a458.72,458.72,0,0,0-94.52,62.95c-8.87,5.39-15.43,6-15.22-7.34l38.75-32.82c45.66-24.56,83.22-62.84,133.88-78.94,66.42-31,132.19-63.6,204.77-78.54,94.5-32.43,191.1-53.5,291.54-53.92-2,13.44-11.73,15.63-22.84,15.44-32.71-.54-63.62,9.45-95.13,16-92.76,4.42-177.38,40.23-263.5,69.45C445.25,827.27,383.88,852.88,330.39,893.72Z"/><path class="cls-40" d="M236.21,1155.69c12.77,9.15,18.33-3.13,26.13-8.76,61.45-44.34,126.67-81.55,197.3-109.8,27.16-10.87,36.35-3.8,36.14,23.13q-.34,43-.56,85.93c-14.24,24.31-5.2,50.85-7,76.31-2,27.7-12.36,33-38.14,22-54.68-23.3-109.75-46.17-166.15-64.74-30.64-10.09-62.7-4.42-85.47,23.32-21.17,25.79-54.18,41.51-65,76.1-12.38,1.29-14.12,24.32-31.51,15.36-.47-1.2-1.68-2.73-1.32-3.58,27.35-63.61,73-109.5,135.41-139.1Z"/><path class="cls-41" d="M236,1151.84c-48.19,44.29-97.55,87.48-134.09,142.69l-23.83,31.61c-15.72,1.85-13.61-10.07-11.9-18,2.8-13.06,2.44-26,2.27-39.06,15.64-44.1,29.38-89.4,72-117,53.76-53.75,100.66-114.77,166-156.31,8,16-7.55,20.77-15.11,25.78-19.64,13-35.4,29.8-51.79,46.09C199.09,1107.86,199.16,1107.94,236,1151.84Z"/><path class="cls-42" d="M77.35,1270.68c15.46,18.28-13.41,37.16.76,55.46C63.5,1363.4,37.46,1395.8,31,1436.52l-7.88.24c-11.42-52.53,14.66-97.69,29.23-145C55.72,1280.88,62.76,1270.28,77.35,1270.68Z"/><path class="cls-5" d="M819,571.15l-39.93.49L700.87,571c-3.14-1.56-4.13-3-3-4.38a4.44,4.44,0,0,1,3.3-2L819,563.86C818.92,566.3,818.93,568.72,819,571.15Z"/><path class="cls-33" d="M701.16,564.64a52,52,0,0,0-.3,6.36H616l0-6.35Z"/><path class="cls-43" d="M140.68,1026.93c-26.4,25.1-48.86,53-62.54,87.21-1.83,23.7-11.17,45.37-18.27,67.72C51.4,1192.72,45,1205.1,36.4,1215.64c-7.23,8.92-18.73,21.78-24.91-2.19,0-83.35-.17-166.65.16-250,0-12.75-3.38-26.07,3.72-38.22,8.36-15.06,9.54-40.73,34.3-35.18,19.2,4.3,25.6,24.59,28.37,43.44,3,20.59,8.31,41.35,7.59,61.86-1.19,34.39,7.26,48.47,41.61,28.08,4.25-2.53,10.06-2.45,15.14-3.58Q145.37,1024.34,140.68,1026.93Z"/><path class="cls-44" d="M54.74,1177c-.51-24-.42-47.86,23.4-62.88,40.29-19.29,40.35,27.27,62.31,38-21.51,39.28-46.63,76.64-63.09,118.59-27.6,52.25-43.72,108.25-54.23,166.07l.3-.34c-4.18,4.38-6.48,11.78-14.95,9.22-1.43-24.47-3.15-48.73,10.08-71.43,8-13.68,2.55-24.67-10.89-32l.06-23.52C17,1269.32,23.71,1219.14,54.74,1177Z"/><path class="cls-44" d="M15.37,925.28q0,149.39.1,298.78c11.38,22.62,12.34,44-7.68,62.78,0-106.86-.17-213.73.11-320.59C7.94,952.35,3.89,937.27,15.37,925.28Z"/><path class="cls-30" d="M7.79,1286.84c14.69-19.45,4.53-41.92,7.68-62.78,20.21-9.75,15.62-40.16,39.27-47-18.4,46.31-23.41,97.06-47,141.65Z"/><path class="cls-45" d="M140.68,1026.93c.62-2.33,1.18-4.67,1.7-7l78.27-70.57,15.22,7.34C204.11,980.05,186.07,1022,140.68,1026.93Z"/><path class="cls-42" d="M8.48,1445.64l15-9.22Q18.9,1474.7,14.36,1513l-5.88-.13Z"/><path class="cls-46" d="M2201.23,1088.46V175.16h176.45v913.3Zm151.59-278.34V657.28h176.45q52.2,0,88.85-21.12a144.92,144.92,0,0,0,56.54-58.4q19.86-37.29,19.87-84.5,0-49.68-19.87-87a140.87,140.87,0,0,0-56.54-57.78q-36.67-20.5-88.85-20.5H2352.82V175.16h161.54q114.32,0,194.47,37.28t122.39,106.24q42.22,69,42.25,164.64V503.2q0,93.2-42.25,162.78T2708.83,772.84q-80.16,37.29-194.47,37.28Z"/><path class="cls-46" d="M3235.05,1109.58q-118.07,0-181.41-76.41t-63.38-229.26V412.5H3163V818.82q0,62.14,34.79,98.78t94.44,36.66q59.64,0,97.54-38.52t37.91-104.38V412.5h172.71v676H3463.69v-287h13.67q0,103.16-26.72,171.48t-78.29,102.52q-51.57,34.15-129.85,34.16Z"/><path class="cls-46" d="M3723.38,310.6V181.37h257.21V310.6Zm84.49,777.86V181.37h172.72v907.09Z"/><path class="cls-46" d="M4102.35,310.6V181.37h257.22V310.6Zm84.5,777.86V181.37h172.72v907.09Z"/><path class="cls-46" d="M4688.85,1073.55,4470.16,413.74h174l207.51,659.81Zm-151.6,280.83V1206.51H4664q36,0,60.26-9.32a93.16,93.16,0,0,0,40.39-29.82q16.13-20.5,24.85-56.54l181.41-697.09h165.27L4936.12,1148.1q-19.87,75.78-55.92,121.16t-92.56,65.23q-56.56,19.86-139.79,19.89Zm210-280.83V936.87h144.14v136.68Z"/><path class="cls-46" d="M5180.91,540.48V413.74h477.15V540.48Zm380.22,556.68q-94.44,0-154.7-24.23t-89.47-82q-29.21-57.78-29.19-155.95V223.62h162.78l-1.25,622.54q0,49.71,26.72,76.41t76.42,26.72h105.62v147.87Z"/></svg>