<?xml version="1.0" encoding="utf-8"?>
<!-- Generator: Adobe Illustrator 26.2.1, SVG Export Plug-In . SVG Version: 6.00 Build 0)  -->
<svg version="1.1" id="Layer_1" xmlns="http://www.w3.org/2000/svg" xmlns:xlink="http://www.w3.org/1999/xlink" x="0px" y="0px"
	 viewBox="0 0 994 270" style="enable-background:new 0 0 994 270;" xml:space="preserve">
<style type="text/css">
	.st0{fill:#FD2B23;}
	.st1{fill:url(#SVGID_1_);}
	.st2{fill:#26344F;}
	.st3{fill:#0F1B34;}
	.st4{fill:#A4ACC2;}
	.st5{fill:url(#SVGID_00000093160153269045191890000010948862474818443663_);}
	.st6{fill:#21A4FE;}
	.st7{fill:#5EC2FE;}
	.st8{fill:#0C0F25;}
	.st9{fill:#1199FD;}
	.st10{fill:#838DA1;}
	.st11{fill:#626B80;}
	.st12{fill:url(#SVGID_00000152950935208998301030000002860374228152341155_);}
	.st13{fill:#AFEDFD;}
	.st14{fill:url(#SVGID_00000109023846882001913040000018336149473598929280_);}
	.st15{fill:#99DEFE;}
	.st16{fill:url(#SVGID_00000157265951046003096620000004575067493189090945_);}
	.st17{fill:#FFFFFF;}
	.st18{fill:url(#SVGID_00000072979608334808234660000011989422811939961013_);}
	.st19{fill:url(#SVGID_00000181078422723280371860000001264015760032167040_);}
	.st20{fill:url(#SVGID_00000066475077236230119060000003981250008465015989_);}
	.st21{fill:#F0140F;}
	.st22{fill:#A40103;}
	.st23{fill:#640100;}
	.st24{fill:url(#SVGID_00000102523285881001530810000013881747203026933650_);}
	.st25{fill:url(#SVGID_00000162347946091999568310000003171336905823474055_);}
	.st26{fill:url(#SVGID_00000033328738813264497090000006019559259366885554_);}
	.st27{fill:#FE976B;}
	.st28{fill:url(#SVGID_00000182492391676385119240000013174784970733098656_);}
	.st29{fill:url(#SVGID_00000152980855056948068850000010843958269721368461_);}
	.st30{fill:url(#SVGID_00000031167804770232035300000015603147967122772140_);}
	.st31{fill:url(#SVGID_00000134236314947056541970000006924162450138933944_);}
	.st32{fill:url(#SVGID_00000003081102907648583030000013540511165990627769_);}
	.st33{fill:url(#SVGID_00000105390729238151867950000009101312849054729618_);}
	.st34{fill:url(#SVGID_00000094599778466465401050000008608080199133300666_);}
</style>
<g>
	<path class="st0" d="M123.9,45.8c4.8-10.5,8-17.5,16.6-25.7c25.2-24.1,68.2-26.2,97.2-8c8.7,5.5,13.6,10.6,20.4,17.9
		c22.6-0.2,45.2-0.2,67.8-0.1l28.1-0.2c9.6,0,23-0.4,32.3,0.1l0.2,103.4c0,15.2,0.9,39.8-0.2,54.1c-11,0.2-21.9,0.2-32.9,0.2
		c7.1,22.9,21.5,30,16.9,55.9c-1.9,10.7,0.3,19.3-14.7,22.7c-18.8,4.3-40.6,3.5-60,3.7l-89.2,0.1l-67.3-0.1c-14.4,0-29.4,0-43.3-0.8
		c-20.4-1.2-30.1-6.9-29.3-28.5c0.3-7.7-1.9-15.9,2.5-23.3c2.9-5.7,11.1-12.4,13.5-17.2l-0.3-0.7c-24.9-1-39.5,3-61.5-14.6
		c-37.3-29.9-22-87.3,26.8-91.5c0.8-4.7,1.5-9.7,2.9-14.3C60.8,46.6,93.6,36.8,123.9,45.8z"/>
	
		<linearGradient id="SVGID_1_" gradientUnits="userSpaceOnUse" x1="157.6294" y1="-516.0223" x2="138.9854" y2="-828.7783" gradientTransform="matrix(0.75 0 0 0.7502 116.2711 660.4679)">
		<stop  offset="0" style="stop-color:#000000"/>
		<stop  offset="1" style="stop-color:#192235"/>
	</linearGradient>
	<path class="st1" d="M354,29.7c9.6,0,23-0.4,32.3,0.1l0.2,103.4c0,15.2,0.9,39.8-0.2,54.1c-11,0.2-21.9,0.2-32.9,0.2
		c7.1,22.9,21.5,30,16.9,55.9c-1.9,10.7,0.3,19.3-14.7,22.7c-18.8,4.3-40.6,3.5-60,3.7l-89.2,0.1l-67.3-0.1c-14.4,0-29.4,0-43.3-0.8
		c-20.4-1.2-30.1-6.9-29.3-28.5c0.3-7.7-1.9-15.9,2.5-23.3c2.9-5.7,11.1-12.4,13.5-17.2c2.4-2.6,8.8-2,13.1-3.5
		c6.7,9,14.6,14.2,25.7,15.4c10.7,1.1,29.9,1.8,40.4,1c9.5,1.3,35.6,0.2,47.2,0.3c32.8,0.3,65,0.7,97.9-0.7
		c27.9-1.2,41.3-11,41.1-40.8c-0.3-27.8,2.1-59.7-6.7-86.4c1-1.4,10.5-6,12.6-7.1C354.4,62.9,354,45.4,354,29.7z"/>
	<path class="st2" d="M89.8,204.8c3.3-0.7,4.4,7.9,8.8,10.2c14.7,7.6,196.4,5.2,221.5,3.8c7.7-0.4,18.8-1.1,26-3.7
		c1.5-0.5,1.6-0.6,2.3-2c-2.6-5.2-2.8-6.8,2-11l0.9,0.9c3.4,6.6,11.1,17.8,12.9,21.9c0.9,2.4,1.3,2.8,0.7,5.2
		c-1.6,1.8-1.9,1.7-4.2,2.6c1.3,1,2.7,1.5,2.9,3.3c1.2,18.4-8,22.6-24.8,23.6c-1.6,0.1-3.2,0.1-4.8,0.1c-21,1-44.2,0.7-65.3,0.6
		c-10.9,1.3-45.9,0.9-58.4,0.6c-9.4,0.3-19.8,0.7-29.1-0.5l-75.6-0.1l-11.2-0.6c-6.2-0.1-13.1-3.8-18.3-6.7
		c-0.6-6.3-1.6-14.7-0.7-20.8c-1.9-1.4-1.8-1.3-3-3.3l0.5-1.8c2.5-2.3,3-2.9,4.7-5.9l0.4-0.7C81.2,214.8,85,209.4,89.8,204.8z"/>
	<path class="st3" d="M89.8,204.8c3.3-0.7,4.4,7.9,8.8,10.2c14.7,7.6,196.4,5.2,221.5,3.8c7.7-0.4,18.8-1.1,26-3.7
		c1.5-0.5,1.6-0.6,2.3-2c-2.6-5.2-2.8-6.8,2-11l0.9,0.9c3.4,6.6,11.1,17.8,12.9,21.9c0.9,2.4,1.3,2.8,0.7,5.2
		c-1.6,1.8-1.9,1.7-4.2,2.6c-16.3,4.4-31.4,4-48.2,4.5c-35.7,0-72,1.7-107.8,1.2c-9.3-0.1-33.2,0.6-41.5-0.5
		c-19.4,0.1-38.8-0.2-58.1-0.9l-11.3-0.5c-7.7-0.9-11.3-1.8-18.4-4.3c-1.9-1.4-1.8-1.3-3-3.3l0.5-1.8c2.5-2.3,3-2.9,4.7-5.9l0.4-0.7
		C81.2,214.8,85,209.4,89.8,204.8z"/>
	<path class="st4" d="M356.6,224.3l1.7-1.1c3.2,1.2,3.2,2,6,1.8c0.9,2.4,1.3,2.8,0.7,5.2c-1.6,1.8-1.9,1.7-4.2,2.6
		c-16.3,4.4-31.4,4-48.2,4.5c-35.7,0-72,1.7-107.8,1.2c-9.3-0.1-33.2,0.6-41.5-0.5c7.9-0.7,53.7,0.3,56.5-1.2l-1.2-1.6
		c0.6-1.6,0.3-1.1,2.4-2c-2.5-1.3-9.1,1.1-12.2-1.1c40.6-0.1,81.8,0,122.4-1.4C338,230.4,352,229.4,356.6,224.3z"/>
	
		<linearGradient id="SVGID_00000091710918847369222770000004966406317999781552_" gradientUnits="userSpaceOnUse" x1="55.0759" y1="-605.4196" x2="25.1589" y2="-538.0786" gradientTransform="matrix(0.75 0 0 0.7502 116.2711 660.4679)">
		<stop  offset="0" style="stop-color:#B8BDCE"/>
		<stop  offset="1" style="stop-color:#EAF6FF"/>
	</linearGradient>
	<path style="fill:url(#SVGID_00000091710918847369222770000004966406317999781552_);" d="M77.8,220.5c2.8,1,4.3,1,5.5,4.2
		c3.1,2.2,6.5,4.1,10.3,4.5c37.9,4.3,76.9,1.6,115,2.8c3.2,2.2,9.7-0.3,12.2,1.1c-2.1,1-1.8,0.4-2.4,2l1.2,1.6
		c-2.8,1.5-48.6,0.4-56.5,1.2c-19.4,0.1-38.8-0.2-58.1-0.9l-11.3-0.5c-7.7-0.9-11.3-1.8-18.4-4.3c-1.9-1.4-1.8-1.3-3-3.3l0.5-1.8
		c2.5-2.3,3-2.9,4.7-5.9L77.8,220.5z"/>
	<path class="st2" d="M351.3,203c3.4,6.6,11.1,17.8,12.9,21.9c-2.8,0.2-2.8-0.6-6-1.8l-1.7,1.1C352.7,214.2,348.4,214.6,351.3,203z"
		/>
	<path class="st2" d="M89.8,204.8c1.7,2,1.3,1,1.6,3.6c-2.3,6.2-5.7,10.6-8,16.3c-1.3-3.2-2.7-3.2-5.5-4.2
		C81.2,214.8,85,209.4,89.8,204.8z"/>
	<path class="st3" d="M312.5,237.2c16.8-0.5,31.9-0.1,48.2-4.5c1.3,1,2.7,1.5,2.9,3.3c1.2,18.4-8,22.6-24.8,23.6
		c-1.6,0.1-3.2,0.1-4.8,0.1l-0.3-21.5c-3.7,0-8.7-0.8-11.3,0.8c-1.5,2.2-1,4-0.7,6.8l-0.6-1.4c0-0.4,0-2.2,0-2.5
		c1-6-10.1-1.1-13.1-3.7C310.7,238.1,310.5,238.5,312.5,237.2z"/>
	<path class="st6" d="M236.3,245.7l8.6-0.3c3.9,2.6,5,4.9,2.6,9.2c-6.9,5.1-31.7,2.3-42.2,2.7h-5.4c-5-3.5-5.5-6.7-2.1-11.8l12,0.3
		C218.5,245.9,227.4,245.9,236.3,245.7z"/>
	<path class="st7" d="M209.7,245.9c8.9,0,17.8,0,26.6-0.1c1,3,1.3,3.8-0.9,6.1c-6.5,1.9-33.7,2.9-38.3-1.6c2.1-3.7,5.6-1.9,11.7-4.1
		L209.7,245.9z"/>
	<path class="st2" d="M75.3,232.2c7.1,2.5,10.7,3.4,18.4,4.3c0.9,3.7,0.6,18.6,0.6,23.2c-6.2-0.1-13.1-3.8-18.3-6.7
		C75.4,246.7,74.5,238.3,75.3,232.2z"/>
	<path class="st3" d="M240.7,243.6c13.4,0.1,14.4,4.6,14.4,16.4c3.9,0,9.8-0.2,13.5,0.2c-10.9,1.3-45.9,0.9-58.4,0.6
		c-9.4,0.3-19.8,0.7-29.1-0.5l4.9-0.2c2.4,0.2,4.3,0.2,6.6,0.2l0.8-0.8c-1.3-1.4-1.4-1-1.8-2.6c2.6,0.2,5.6,0.4,8.2,0.5h5.4
		c10.4-0.4,35.3,2.3,42.2-2.7c2.4-4.4,1.3-6.6-2.6-9.2l-4-0.9L240.7,243.6z"/>
	<path class="st8" d="M191.7,256.9c2.6,0.2,5.6,0.4,8.2,0.5h5.4c-1.6,0.7-2.9,0.9-4.7,1.1h0.6l0.8,0.5l12.4,0.1v0.9
		c-0.7-0.1-3.5,0.5-4.3,0.8c-9.4,0.3-19.8,0.7-29.1-0.5l4.9-0.2c2.4,0.2,4.3,0.2,6.6,0.2l0.8-0.8
		C192.2,258.2,192.1,258.5,191.7,256.9z"/>
	<path class="st3" d="M186.1,260.1c-2.2-3.8-2.8-9.5,0-13c2.3-2.9,4.7-2.8,8.1-3.2c14.5-0.7,31.9-0.3,46.6-0.2l0.2,0.9l4,0.9
		l-8.6,0.3c-8.9,0.1-17.7,0.2-26.6,0.1l-12-0.3c-3.3,5.1-2.9,8.3,2.1,11.8c-2.6-0.1-5.5-0.3-8.2-0.5c0.4,1.6,0.5,1.3,1.8,2.6
		l-0.8,0.8C190.3,260.4,188.4,260.3,186.1,260.1z"/>
	<path class="st9" d="M191.7,256.9c-1.9-3.9-2.9-5.7-0.7-9.5c2.4-1.8,3.8-1.6,6.7-1.8c-3.3,5.1-2.9,8.3,2.1,11.8
		C197.2,257.3,194.3,257.1,191.7,256.9z"/>
	<path class="st8" d="M194.1,243.9c14.5-0.7,31.9-0.3,46.6-0.2l0.2,0.9c-5.1,0.9-41.8,0.9-46.9,0.2L194.1,243.9z"/>
	<path class="st10" d="M93.8,236.5l11.3,0.5c-0.1,7.9-0.2,15.4,0.5,23.3l-11.2-0.6C94.4,255.1,94.6,240.2,93.8,236.5z"/>
	<path class="st3" d="M305.1,244.4c4.5-0.2,11.6-0.8,15.9-0.1l0.6,1.4c0.1,2.6-0.6,8.2-0.8,11c-4.7,0.6-11,0.6-15.8,0.7
		C304.9,253.3,305,248.6,305.1,244.4z"/>
	<path class="st3" d="M278.6,244.5c4.9-0.3,15.6-1.8,15.7,6.6c0,1.8-0.3,4.3-1.3,5.9l-1.9,0.4c-5.6-0.2-9.8,2.6-13.9-1
		C275.6,252.7,275.6,247.4,278.6,244.5z"/>
	<path class="st11" d="M362.9,162.7h12.2V177l-12.2-0.1V162.7z"/>
	<path class="st11" d="M362.9,137.3l12.1-0.1v14.3h-12.1V137.3z"/>
	<path class="st11" d="M362.9,111.6H375l0.1,13.6h-12.2V111.6z"/>
	<path class="st10" d="M363,63.1l11.9-0.1l0.1,13.7h-12V63.1z"/>
	<path class="st10" d="M362.9,87.1L375,87v13.5h-12.1V87.1z"/>
	<path class="st4" d="M363.6,39.3l11.4-0.2c0.1,4.6,0.2,8.7-0.2,13.4H363C362.9,49.1,362.5,42.2,363.6,39.3z"/>
	
		<linearGradient id="SVGID_00000009574280944738466820000016684626411519583911_" gradientUnits="userSpaceOnUse" x1="53.4287" y1="-641.6933" x2="0.5337" y2="-857.2712" gradientTransform="matrix(0.75 0 0 0.7502 116.2711 660.4679)">
		<stop  offset="0" style="stop-color:#051A39"/>
		<stop  offset="1" style="stop-color:#30567A"/>
	</linearGradient>
	<path style="fill:url(#SVGID_00000009574280944738466820000016684626411519583911_);" d="M123.9,45.8c4.8-10.5,8-17.5,16.6-25.7
		c25.2-24.1,68.2-26.2,97.2-8c8.7,5.5,13.6,10.6,20.4,17.9c1.6,2.2,5.8,7.9,6.9,10c7,11.1,7.5,14.1,12.5,25.5l-12.7-0.2l-0.6-0.2
		l-5.2,0.4c-39.7-0.9-79.4-0.8-119.1,0.5l-0.7,0.2C91.8,69.4,90.3,84.5,90,126.5c0,17.6-0.6,39.6,0.9,56.8l0.9,4.2
		c1.2,2.9,2.5,6.3,3.9,9.1c-4.4,1.5-10.7,0.9-13.1,3.5l-0.3-0.7c-24.9-1-39.5,3-61.5-14.6c-37.3-29.9-22-87.3,26.8-91.5
		c0.8-4.7,1.5-9.7,2.9-14.3C60.8,46.6,93.6,36.8,123.9,45.8z"/>
	<path class="st13" d="M71.8,110.6c-12.6-36.1,21.4-59.8,54-47.4c3.5,1.3,9.8,3,13.4,3C91.8,69.4,90.3,84.5,90,126.5
		c0,17.6-0.6,39.6,0.9,56.8l0.9,4.2c-5,0.7-9.3,1-14.2,1.5c-6-0.5-10.3,0.5-17.1-0.8c-16.5-0.7-31-9.4-40.8-22.4
		c2.9-1.8,3.5-0.4,5.1-2.5l-2.3-5.2C10,137,35.9,111.7,56,110.4C62.1,110.1,66,110.2,71.8,110.6z"/>
	
		<linearGradient id="SVGID_00000177461561397041458060000005412221999172878758_" gradientUnits="userSpaceOnUse" x1="-64.6407" y1="-630.5512" x2="-85.3817" y2="-697.2092" gradientTransform="matrix(0.75 0 0 0.7502 116.2711 660.4679)">
		<stop  offset="0" style="stop-color:#1AACFF"/>
		<stop  offset="1" style="stop-color:#63D5FE"/>
	</linearGradient>
	<path style="fill:url(#SVGID_00000177461561397041458060000005412221999172878758_);" d="M27.5,164.8c0.3-0.1,0.7-0.3,1-0.3
		c14-3.7,27.4-35.9,61.6-38c0,17.6-0.6,39.6,0.9,56.8l0.9,4.2c-5,0.7-9.3,1-14.2,1.5c-6-0.5-10.3,0.5-17.1-0.8
		c-16.5-0.7-31-9.4-40.8-22.4c2.9-1.8,3.5-0.4,5.1-2.5l-2.3-5.2l0.9-0.9C24.9,159.8,26.3,162.2,27.5,164.8z"/>
	<path class="st15" d="M22.6,158.2l0.9-0.9c1.4,2.5,2.9,4.9,4,7.5c5.5,10.4,19.2,15.6,30.1,18c2.6,0.9,5.3,1.7,7.9,2.5l0.1,0.9
		c-2.5,1.9-2.7,1-5.1,2c-16.5-0.7-31-9.4-40.8-22.4c2.9-1.8,3.5-0.4,5.1-2.5L22.6,158.2z"/>
	<path class="st7" d="M57.6,182.9c7.1,0.6,14.3,0.9,21.5,0.7c2.5,0,10.1-0.5,11.9-0.3l0.9,4.2c-5,0.7-9.3,1-14.2,1.5
		c-6-0.5-10.3,0.5-17.1-0.8c2.4-1,2.5-0.2,5.1-2l-0.1-0.9C62.9,184.6,60.2,183.8,57.6,182.9z"/>
	
		<linearGradient id="SVGID_00000170978595630699802570000012881137149532815514_" gradientUnits="userSpaceOnUse" x1="114.6942" y1="-777.7548" x2="94.7302" y2="-856.7419" gradientTransform="matrix(0.75 0 0 0.7502 116.2711 660.4679)">
		<stop  offset="0" style="stop-color:#AFECFD"/>
		<stop  offset="1" style="stop-color:#D7FFFF"/>
	</linearGradient>
	<path style="fill:url(#SVGID_00000170978595630699802570000012881137149532815514_);" d="M139.9,66c2.4-14.1,7.3-28,19-36.9
		c12.9-9.8,26-13,42-11.1c19.5,2.3,36.1,11.6,46.8,28.4c3.7,5.9,6.5,13.1,10.8,18.5l0.5,0.6C219.3,64.6,179.6,64.8,139.9,66z"/>
	<path class="st17" d="M132.8,58.1c2.4-9.2,4.5-16.2,10.1-24.2c20.6-29.3,65.5-31.6,93-11.4c12.8,9.4,25.8,26.5,28.3,42.7l-5.2,0.4
		l-0.5-0.6c-4.3-5.4-7.1-12.6-10.8-18.5C237,29.6,220.4,20.3,200.9,18c-15.9-1.9-29.1,1.3-42,11.1c-11.7,8.9-16.6,22.8-19,36.9
		l-0.7,0.2c-3.6,0-9.9-1.7-13.4-3c-32.6-12.5-66.6,11.3-54,47.4c-5.9-0.5-9.8-0.5-15.7-0.2C35.9,111.7,10,137,22.6,158.1l2.3,5.2
		c-1.5,2.1-2.1,0.7-5.1,2.5c-3.9-6.7-6.5-13.1-7-20.9c-0.8-10.1,2.6-20,9.3-27.5c11.2-12.7,23.6-14.5,39.2-15.5
		C56.5,57.2,96,44.4,132.8,58.1z"/>
	<path class="st3" d="M91.9,187.6c1.2,2.9,2.5,6.3,3.9,9.1c-4.4,1.5-10.7,0.9-13.1,3.5l-0.3-0.7l0.1-1.8c3.2-1,7.1-3.8,9.1-6.6
		l-0.2-1.2c-4.2-1.6-7.7,2.4-13.5-0.8C82.5,188.5,86.9,188.3,91.9,187.6z"/>
	
		<linearGradient id="SVGID_00000050647149352227064230000009848245604878382009_" gradientUnits="userSpaceOnUse" x1="169.6274" y1="-598.3254" x2="169.1415" y2="-791.4293" gradientTransform="matrix(0.75 0 0 0.7502 116.2711 660.4679)">
		<stop  offset="0" style="stop-color:#6F0100"/>
		<stop  offset="1" style="stop-color:#B5080C"/>
	</linearGradient>
	<path style="fill:url(#SVGID_00000050647149352227064230000009848245604878382009_);" d="M325.9,30l28.1-0.2
		c0,15.6,0.5,33.2-0.1,48.6c-2.1,1.1-11.5,5.7-12.6,7.1c8.7,26.7,6.4,58.7,6.7,86.4c0.3,29.8-13.1,39.6-41.1,40.8
		c-32.9,1.4-65,1-97.9,0.7c-11.6-0.1-37.7,1-47.2-0.3c4.8-0.7,22.1-0.5,27.9-0.5c-1.6-1.1-47.3,0-56.9-2.2l-0.4-0.7
		c10.6-3.4,53.1-0.7,64.1-2.9c-0.5-1.5-2-3.4-3-4.8c-8.1-10.7-15-20.9-22.8-31.7c-1.8-2.7-3.7-5.4-5.5-8.1
		c-3.3-4.9-7.7-10.7-6.5-16.8h0.9c3.7,5.4,12.4,14.2,17.1,19.3l27.7,29.4c2.6,2.8,11.2,11.9,12.7,14.5c0.1,0.3,0.6,1.3,0.8,1.7
		c6.3,2.8,13.5-5.7,18.7-9.9l0.7,0.2c-0.6,2.1-3.9,7-5.2,9.4c1.6-0.4,3.6-2.7,4.9-3.9l3.7-3.9c4-5.2,9.1-11.3,13.4-16.2
		c3.1-7.7,21.9-24.5,23.4-35.3c-0.9-1.6-0.8-2.1-0.8-3.9v-0.6l-0.5-1.9c-1.8-0.6-4-0.6-5.9-0.8c2.7-1.2,3.7,0,7.4-0.4
		c14.1-11.8,36.9-17,49.4-33.3c2.2-2.9,4.7-4.4,6.2-8c0.4,1.3,1.1,2.2,1.3,3.2c-0.4-2.9-0.9-9.3-1.8-11.8c-2.5-6.7-9.1-12-15.8-14.1
		c-2.1-0.7-4.1-0.5-6-1.4c0.8-1.6,1.6-1.7,3.2-2.4c9.7-0.4,20.8,12.8,22.2,21.8c0.4,2.4,0.3,4.6,0.8,7.1l0.9-1.4
		C335.2,67.4,299,72.5,272,71.7c-1-0.9-4.1-1.3-5.6-1.5c-1.7-2.2-1.1-1.7-1.5-4.9l12.7,0.2c-5-11.4-5.6-14.4-12.5-25.5
		c-1-2.1-5.3-7.8-6.9-10C280.7,29.8,303.3,29.8,325.9,30z"/>
	
		<linearGradient id="SVGID_00000027599699184978621650000009360791592098644364_" gradientUnits="userSpaceOnUse" x1="240.6613" y1="-621.8293" x2="228.6373" y2="-730.9983" gradientTransform="matrix(0.75 0 0 0.7502 116.2711 660.4679)">
		<stop  offset="0" style="stop-color:#A80002"/>
		<stop  offset="1" style="stop-color:#FF0E15"/>
	</linearGradient>
	<path style="fill:url(#SVGID_00000027599699184978621650000009360791592098644364_);" d="M333,101.8c0.5,14.2,3.4,25.7,3.1,41.2
		c-0.6,14.3,1.4,34.9-5.5,47.1c-2.5,0-4.9,0.4-7.5,0.7c-20.5,2.3-41.3,5.3-61.8,6.5c-1.1,0.1-9.6-3.6-11-4.1c2-2.8,2.8-3.8,3.8-7.1
		c3.1-7.7,21.9-24.5,23.4-35.3c-0.9-1.6-0.8-2.1-0.8-3.9v-0.6l-0.5-1.9c-1.8-0.6-4-0.6-5.9-0.8c2.7-1.2,3.7,0,7.4-0.4
		c14.1-11.8,36.9-17,49.4-33.3C329.1,106.9,331.6,105.4,333,101.8z"/>
	
		<linearGradient id="SVGID_00000130649111521028118510000000459726952064210055_" gradientUnits="userSpaceOnUse" x1="278.7465" y1="-763.4432" x2="251.4325" y2="-845.3491" gradientTransform="matrix(0.75 0 0 0.7502 116.2711 660.4679)">
		<stop  offset="0" style="stop-color:#2F3343"/>
		<stop  offset="1" style="stop-color:#566678"/>
	</linearGradient>
	<path style="fill:url(#SVGID_00000130649111521028118510000000459726952064210055_);" d="M325.9,30l28.1-0.2
		c0,15.6,0.5,33.2-0.1,48.6c-2.1,1.1-11.5,5.7-12.6,7.1c-11-23.1-42-18.4-63.8-20c-5-11.4-5.6-14.4-12.5-25.5c-1-2.1-5.3-7.8-6.9-10
		C280.7,29.8,303.3,29.8,325.9,30z"/>
	<path class="st11" d="M258.1,30c22.6-0.2,45.2-0.2,67.8-0.1c-6.7,2.3-19.2,1.5-24.8,2.8c-8.4,1.9-29.3,4.9-36.1,7.3
		C263.9,37.9,259.7,32.2,258.1,30z"/>
	<path class="st21" d="M333,101.8c0.4,1.3,1.1,2.2,1.3,3.2c-0.4-2.9-0.9-9.3-1.8-11.8c-2.5-6.7-9.1-12-15.8-14.1
		c-2.1-0.7-4.1-0.5-6-1.4c0.8-1.6,1.6-1.7,3.2-2.4c9.7-0.4,20.8,12.8,22.2,21.8c0.4,2.4,0.3,4.6,0.8,7.1l0.9-1.4
		c2.6,9,2.8,44.3,2.6,55c0.2,23.4-1.8,48.1-31.1,48.1c-10.1,0-66.8,2.7-72.4,0.1l3.7-3.9c4-5.2,9.1-11.3,13.4-16.2
		c-0.9,3.4-1.8,4.3-3.8,7.1c1.4,0.6,10,4.2,11,4.1c20.5-1.2,41.4-4.1,61.8-6.5c2.6-0.3,5-0.7,7.5-0.7c6.9-12.2,4.9-32.7,5.5-47.1
		C336.4,127.5,333.5,116,333,101.8z"/>
	<path class="st22" d="M240.6,202.2c4-5.2,9.1-11.3,13.4-16.2c-0.9,3.4-1.8,4.3-3.8,7.1c1.4,0.6,10,4.2,11,4.1
		c20.5-1.2,41.4-4.1,61.8-6.5c2.6-0.3,5-0.7,7.5-0.7c-5.2,7.7-13.6,10.7-22.5,11C286.7,202,261.9,203.5,240.6,202.2z"/>
	<path class="st0" d="M333,101.8c0.4,1.3,1.1,2.2,1.3,3.2c-0.4-2.9-0.9-9.3-1.8-11.8c-2.5-6.7-9.1-12-15.8-14.1
		c-2.1-0.7-4.1-0.5-6-1.4c0.8-1.6,1.6-1.7,3.2-2.4c9.7-0.4,20.8,12.8,22.2,21.8c0.4,2.4,0.3,4.6,0.8,7.1l0.9-1.4
		c2.6,9,2.8,44.3,2.6,55c-3.2,6.7-1.2,16.8-3.2,24.5c-3.3,12.5-4.3,15.5-16.4,19.8l-0.7-0.7l0.4-1.1c20.5-8.7,17.4-38.8,15.6-57.2
		C336.4,127.5,333.5,116,333,101.8z"/>
	<path class="st17" d="M193.4,144.7c0.1-9.4-1.8-46.4,2.3-51.8c3.9-2,42.4-2.2,45.7,0.5c4.3,7.2,1.8,39.8,2.6,51.3
		c8.2,0,24.2,0.5,31.9-0.3l0.5,1.9v0.6c0.1,1.8,0,2.3,0.8,3.9c-1.5,10.8-20.3,27.6-23.4,35.3c-4.3,4.9-9.4,11-13.4,16.2l-3.7,3.9
		c-1.3,1.3-3.3,3.5-4.9,3.9c1.3-2.4,4.6-7.3,5.2-9.4l-0.7-0.2c-5.2,4.2-12.4,12.7-18.7,9.9c-0.2-0.4-0.8-1.4-0.8-1.7
		c-1.4-2.6-10.1-11.7-12.7-14.5l-27.7-29.4c-4.8-5.1-13.4-13.9-17.1-19.3C163.9,144,187.1,144.6,193.4,144.7z"/>
	<path class="st23" d="M276.5,146.2v0.6c0.1,1.8,0,2.3,0.8,3.9c-1.5,10.8-20.3,27.6-23.4,35.3c-4.3,4.9-9.4,11-13.4,16.2l-3.7,3.9
		c-1.3,1.3-3.3,3.5-4.9,3.9c1.3-2.4,4.6-7.3,5.2-9.4l-0.7-0.2c-5.2,4.2-12.4,12.7-18.7,9.9c-0.2-0.4-0.8-1.4-0.8-1.7
		c5.1,0,17.5-15.4,21.5-19.9C251.3,174.7,264,160.6,276.5,146.2z"/>
	
		<linearGradient id="SVGID_00000080192904719517336430000003730831457320616355_" gradientUnits="userSpaceOnUse" x1="92.129" y1="-602.7682" x2="82.572" y2="-793.6893" gradientTransform="matrix(0.75 0 0 0.7502 116.2711 660.4679)">
		<stop  offset="0" style="stop-color:#820000"/>
		<stop  offset="1" style="stop-color:#F81C1D"/>
	</linearGradient>
	<path style="fill:url(#SVGID_00000080192904719517336430000003730831457320616355_);" d="M139.9,66c39.7-1.2,79.4-1.4,119.1-0.5
		l5.2-0.4l0.6,0.2c0.4,3.1-0.1,2.7,1.5,4.9c1.5,0.3,4.6,0.6,5.6,1.5c-26.9-0.4-53.8-0.6-80.8-0.5c-17.5,0.1-55.4-0.1-71,4.7
		c-22.8,4.8-22.4,25-23,44.2c0.1,11.1,0.1,26.2,1.6,37.6c0.6,0.8,1.1,1.5,1.6,2.1c0.2,5.1,0.6,14.4,2.5,19l1,2.3
		c0.8,0.5,2.4,2.8,3.7,3.9c12.6,4,47.5-5.9,60.2-10.9c2.3-0.9,2.2-1.7,3-3.9c7.8,10.8,14.7,21,22.8,31.7c1,1.4,2.5,3.3,3,4.8
		c-11,2.2-53.5-0.5-64.1,2.9l0.4,0.7c9.6,2.2,55.3,1.1,56.9,2.2c-5.9,0.1-23.2-0.2-27.9,0.5c-10.5,0.8-29.7,0.1-40.4-1
		c-11.2-1.2-19.1-6.4-25.7-15.4c-1.4-2.8-2.7-6.1-3.9-9.1l-0.9-4.2c-1.5-17.1-1-39.1-0.9-56.8c0.3-42,1.8-57.1,49.2-60.3L139.9,66z"
		/>
	
		<linearGradient id="SVGID_00000047036904251398688330000015883271962950728124_" gradientUnits="userSpaceOnUse" x1="46.6216" y1="-605.0361" x2="40.4956" y2="-642.142" gradientTransform="matrix(0.75 0 0 0.7502 116.2711 660.4679)">
		<stop  offset="0" style="stop-color:#A60102"/>
		<stop  offset="1" style="stop-color:#D1040C"/>
	</linearGradient>
	<path style="fill:url(#SVGID_00000047036904251398688330000015883271962950728124_);" d="M170.8,170.2c7.8,10.8,14.7,21,22.8,31.7
		c-9.6,2-71.2,1.4-80.6-5.5c-5.7-4.2-7.4-8.7-9.1-15.3c0.8,0.5,2.4,2.8,3.7,3.9c12.6,4,47.5-5.9,60.2-10.9
		C170,173.2,169.9,172.3,170.8,170.2z"/>
	<path class="st21" d="M196.5,206.7c-49.7-5.2-104.8,20-99.8-51.8c0.3-4.9-1.1-31.8,0.5-34.8c0.1,11.1,0.1,26.2,1.6,37.6
		c0.6,0.8,1.1,1.5,1.6,2.1c0.2,5.1,0.6,14.4,2.5,19l1,2.3c1.6,6.6,3.4,11.1,9.1,15.3c9.4,6.9,71,7.5,80.6,5.5
		C194.5,203.3,196,205.2,196.5,206.7z"/>
	<path class="st21" d="M103.5,134.4c14.5,5.9,31.4,17.2,48.2,17.5c7.6,0.1,3.6-2.9,7-6.5c-1.2,6.1,3.2,11.9,6.5,16.8
		c1.8,2.7,3.7,5.4,5.5,8.1c-0.9,2.1-0.7,3-3,3.9c-12.7,4.9-47.5,14.8-60.2,10.9c-1.2-1.1-2.8-3.3-3.7-3.9l-1-2.3
		C101.9,163.3,101,150,103.5,134.4z"/>
	
		<linearGradient id="SVGID_00000158719193398959484650000013926518527423879856_" gradientUnits="userSpaceOnUse" x1="151.3643" y1="-753.23" x2="140.0494" y2="-802.8971" gradientTransform="matrix(0.75 0 0 0.7502 116.2711 660.4679)">
		<stop  offset="0" style="stop-color:#FE8877"/>
		<stop  offset="1" style="stop-color:#FFCE93"/>
	</linearGradient>
	<path style="fill:url(#SVGID_00000158719193398959484650000013926518527423879856_);" d="M120.2,76c15.6-4.8,53.5-4.7,71-4.7
		c26.9-0.1,53.9,0.1,80.8,0.5c27,0.8,63.2-4.3,65.8,31.1l-0.9,1.4c-0.6-2.5-0.4-4.7-0.8-7.1c-1.4-9-12.5-22.2-22.2-21.8
		c-1.6,0.7-2.4,0.8-3.2,2.4c1.9,0.8,3.9,0.7,6,1.4c6.7,2.1,13.3,7.4,15.8,14.1c1,2.5,1.5,8.9,1.8,11.8c-0.2-1-0.9-1.9-1.3-3.2
		c-0.7-15.4-12.8-22.5-26.9-23.4c-44.1-2.6-88.5-1.1-132.7-1.4c-15.9-0.1-37.8,0-53,3.5l-0.9-0.4c3.4-3.7,31.2-2.6,35.6-5.6
		C151,69.9,124.1,77.8,120.2,76z"/>
	<path class="st27" d="M120.2,76c3.9,1.8,30.8-6.1,34.9-1.5c-4.4,3-32.2,1.9-35.6,5.6l0.9,0.4c-7.9,4-13.9,8-16.1,17.1
		c-4.4,17.9-3.6,43.5-3.9,62.1c-0.4-0.6-0.9-1.2-1.6-2.1c-1.5-11.4-1.5-26.5-1.6-37.6C97.8,101,97.5,80.8,120.2,76z"/>
	<path class="st22" d="M244.1,144.7c0.1-7.7-0.1-19.7,0.8-27.1c1.1,2,0.5,4.9,1,5.1l0.6-1.8l1.3,0.5c1.4,3.6,3,18.7,1.8,22.1
		C247.2,144.4,246.6,144.4,244.1,144.7z"/>
	<path class="st0" d="M488.4,99.1c8.7,0.1,17.3,0,26,0l0.1,77.4l-20,0.1v-30.3c0-7,0-14,0.1-21l-19.1,38.2H462
		c-5.7-10.1-14.3-28.1-18.8-38.8l0.1,51.8l-19.8,0.1c0.3-25.8-0.2-51.7,0.2-77.5h27c6.4,12.3,12.5,26.5,19,39.3
		C476.3,125.4,482.5,112.3,488.4,99.1z"/>
	<path class="st2" d="M752.5,176.5c6.5-6.3,14.6-2.5,22.8-2.4c4.1,0.1,10.8,0.1,14.6,1C781.5,177.3,761.9,176.5,752.5,176.5z"/>
	
		<linearGradient id="SVGID_00000133505825622462800380000006874613754528532101_" gradientUnits="userSpaceOnUse" x1="780.7136" y1="169.9101" x2="784.7418" y2="95.3193" gradientTransform="matrix(1 0 0 -1 0 269)">
		<stop  offset="0" style="stop-color:#023A7E"/>
		<stop  offset="1" style="stop-color:#1170BD"/>
	</linearGradient>
	<path style="fill:url(#SVGID_00000133505825622462800380000006874613754528532101_);" d="M814.6,121.4C807,92.9,771.7,100,750.7,99
		l-0.1,49.8c0,7.7-0.4,19.8,0.2,27.1c0.4,0.2,1.3,0.6,1.7,0.6c9.4,0.1,29,0.8,37.4-1.3C814.9,168.3,820.6,143.8,814.6,121.4z
		 M795.9,146.3c-1,5.1-3.5,8.7-6.7,12.8c-6.4,5.5-11.8,5.4-19.9,5.7c0-8-1-48.1,0.5-52.8C793.5,111.1,800.3,122.9,795.9,146.3z"/>
	
		<linearGradient id="SVGID_00000163762109506653396650000002693927771873806978_" gradientUnits="userSpaceOnUse" x1="622.9988" y1="174.3634" x2="614.8923" y2="93.0713" gradientTransform="matrix(1 0 0 -1 0 269)">
		<stop  offset="0" style="stop-color:#E80916"/>
		<stop  offset="1" style="stop-color:#FF4233"/>
	</linearGradient>
	<path style="fill:url(#SVGID_00000163762109506653396650000002693927771873806978_);" d="M647,94.2h-1.1
		c-6.5,0.7-12.9,1.6-19.5,1.9c0.7,8.9,0.6,18.2,0.6,27.2c-9.4-3.1-18-4.1-27.3,0.4c-6.5,3.2-11.3,8.9-13.5,15.8
		c-2.7,8-2.2,16.8,1.6,24.5c2.1,4.1,3.9,6,7.2,9c21.3,12.3,28-2.2,33.8-1.3c0.4,1.4,0.7,2.8,1.2,4.2c2.8,1.1,14.2,0.5,18,0.5
		C648,167.4,648.1,96.1,647,94.2z M626.3,160.7c-1.5,2.8-5.1,3.5-8,4.3c-5.7-1.1-9-2.4-11.7-8c-2.1-4.4-2.4-9.5-0.8-14.1
		c1.8-5.1,3.9-6.5,8.4-8.6c6.1-0.3,7.7,0.4,13.2,2.8C627.6,143.7,629.4,155.1,626.3,160.7z"/>
	
		<linearGradient id="SVGID_00000103239195563708629300000017712356877460858763_" gradientUnits="userSpaceOnUse" x1="1129.6903" y1="-647.3648" x2="1130.4602" y2="-745.3588" gradientTransform="matrix(0.75 0 0 0.7502 116.2711 660.4679)">
		<stop  offset="0" style="stop-color:#003B81"/>
		<stop  offset="1" style="stop-color:#1676C4"/>
	</linearGradient>
	<path style="fill:url(#SVGID_00000103239195563708629300000017712356877460858763_);" d="M935.9,98.5c5.7-0.1,10.8-0.4,16.5-0.7
		c0.4,15,0,31.7,0,46.9c18.2-20.2,10.5-22.6,40.1-22.5l-22.4,26.4c4.3,4.2,10.9,12.6,15.1,17.4c2,2.9,6.4,7.6,8.8,10.4
		c-7.5,0.3-15.9,0.1-23.4,0.1c-5.6-6.5-12.3-16.4-18.1-23.6v23.6h-18.9v-52.1c0-5.5-0.3-20.5,0.6-25L935.9,98.5z"/>
	
		<linearGradient id="SVGID_00000078760394190348714410000012002745857841002169_" gradientUnits="userSpaceOnUse" x1="850.0478" y1="146.061" x2="847.9298" y2="94.0822" gradientTransform="matrix(1 0 0 -1 0 269)">
		<stop  offset="0" style="stop-color:#00387C"/>
		<stop  offset="1" style="stop-color:#0E69B7"/>
	</linearGradient>
	<path style="fill:url(#SVGID_00000078760394190348714410000012002745857841002169_);" d="M866.4,125.9c-5.7-5.1-15.7-5.1-23-5
		c-7,0.9-18.1,9.3-20.5,15.9c-7.8,20.9,1.8,41.1,25.4,40.9c1.3,0,2.6-0.1,3.9-0.1C879.4,174.3,885.8,143.2,866.4,125.9z
		 M852.1,165.7c-17.4,1.6-18.1-24-6.9-31.5C862.7,132.4,863.8,158.2,852.1,165.7z"/>
	<path class="st0" d="M541.9,158c-0.8-1.9-0.8-1.1-0.5-3c5.9-1.4,30.9-0.4,39-0.7c-0.1-22.7-7.2-34.1-31.6-33.4
		c-1.1,0-2.1,0.1-3.2,0.1c-26.3,4.5-33.5,35.6-12.7,51.7c10.4,8.1,34.2,5.7,46,0.2c-1.3-3.6-2.5-7.6-4.3-11
		C565.6,166.4,547.2,169.8,541.9,158z M547.4,133.6c6.4-0.4,14.9,1.1,14.2,9.4c-2,1.9-1.3,1.3-4.9,1.5c-5.8,0.2-10,1-15.1-1.6
		C539.6,138.6,544.2,135.7,547.4,133.6z"/>
	
		<linearGradient id="SVGID_00000053544715097701119920000014013963265272242110_" gradientUnits="userSpaceOnUse" x1="717.0361" y1="145.9763" x2="712.8815" y2="92.9887" gradientTransform="matrix(1 0 0 -1 0 269)">
		<stop  offset="0" style="stop-color:#D70A18"/>
		<stop  offset="1" style="stop-color:#FF2D28"/>
	</linearGradient>
	<path style="fill:url(#SVGID_00000053544715097701119920000014013963265272242110_);" d="M708.7,120.9l-2.6,0.1
		c-7.1,1-10.7,2-17.2,5.2c1.1,3.9,2.2,7.4,3,11.4c8.5-3.2,24.3-8.9,28.4,2.9L720,142c-7.2,4.1-29.8-3.6-33.5,14
		c-1.8,8.4-0.3,13.7,6.5,19.1c20,7.9,21.6-3.4,29.6-2.5c0.5,1.3,1,3.6,1.9,3.7c4.3,0.6,12.4,0.2,16.6,0.2
		C740.5,147.5,746.9,119.5,708.7,120.9z M713.1,166c-11.5-0.7-14.3-11.4-0.3-13.5l8.5,0.4C721.4,162.2,721.9,163.2,713.1,166z"/>
	
		<linearGradient id="SVGID_00000083790232813286865330000008489392783972407481_" gradientUnits="userSpaceOnUse" x1="1061.2484" y1="-645.1016" x2="1046.7584" y2="-714.0496" gradientTransform="matrix(0.75 0 0 0.7502 116.2711 660.4679)">
		<stop  offset="0" style="stop-color:#00357A"/>
		<stop  offset="1" style="stop-color:#0C66B4"/>
	</linearGradient>
	<path style="fill:url(#SVGID_00000083790232813286865330000008489392783972407481_);" d="M907.8,121c6.9-1,13.4,0.4,19.9,2.6
		c-0.1,4.3-0.5,8.9-0.9,13.2c-5.7-2.1-11.8-3.8-17.7-1.8c-3.7,1.2-6.7,3.9-8.3,7.4c-3.7,7.9-1,19.6,7.9,22.6
		c6.6,2.3,12.5,0.1,18.5-2.7l1.6,11.4c-5.7,4-16.4,4.1-23,3.6c-18-1.6-26.8-14.9-24.7-32.2C882.6,131.7,894.8,122.5,907.8,121z"/>
	
		<linearGradient id="SVGID_00000062163207193432954370000002838702877914897329_" gradientUnits="userSpaceOnUse" x1="741.1099" y1="-647.7849" x2="733.9899" y2="-715.2498" gradientTransform="matrix(0.75 0 0 0.7502 116.2711 660.4679)">
		<stop  offset="0" style="stop-color:#DF0B16"/>
		<stop  offset="1" style="stop-color:#FF2F2A"/>
	</linearGradient>
	<path style="fill:url(#SVGID_00000062163207193432954370000002838702877914897329_);" d="M659.5,122c6.6,0.2,13.3,0.1,19.9,0.1
		l0.1,54.4c-6.6,0-13.3,0-20,0.1V122z"/>
	<path class="st0" d="M666.6,94.8c5.6-0.3,9.3-0.2,12.3,5.5c1.1,2.1,1.2,4.7,0.3,6.9c-1.5,3.8-4,5-7.4,6.4
		C654,113.5,654.1,97.4,666.6,94.8z"/>
</g>
</svg>
